# xmcd
#
# Track frame offsets:
#	150
#	813
#	18994
#	19739
#	33372
#	45348
#	57434
#	72751
#	75941
#	91212
#	110640
#	125091
#	128329
#	141391
#	153128
#	157273
#	168621
#	182966
#	195444
#	208329
#	224898
#	227461
#	242921
#	251205
#	277878
#
# Disc length: 3889 seconds
#
# Revision: 0
# Processed by: cddbd v1.5.2PL0 Copyright (c) Steve Scherf et al.
# Submitted via: audiograbber 1.83.01
#
DISCID=580f2f19
DTITLE=Wise Guys - Radio
DYEAR=2006
DGENRE=Acapella
TTITLE0=Jingle A
TTITLE1=Radio
TTITLE2=Jingle B
TTITLE3=Denglisch
TTITLE4=Jetzt und Hier
TTITLE5=Das bedeutet Krieg
TTITLE6=Sie bricht mir das Herz
TTITLE7=Die Nachrichten
TTITLE8=Buddy Bieber
TTITLE9=Das Fremde Wesen
TTITLE10=Romanze
TTITLE11=Klatsch und Tratsch
TTITLE12=Das Allerletzte
TTITLE13=Tiefgang
TTITLE14=Der Sport
TTITLE15=Aber Sonst Gesund
TTITLE16=Ruf Doch Mal An '06
TTITLE17=Mad World
TTITLE18=Ja Ja
TTITLE19=Wir hatten den Moment
TTITLE20=Das Horoskop
TTITLE21=Schunkeln
TTITLE22=Ständchen
TTITLE23=Zeischenbilanz
TTITLE24=Bonustrack
EXTD=
EXTT0=
EXTT1=
EXTT2=
EXTT3=
EXTT4=
EXTT5=
EXTT6=
EXTT7=
EXTT8=
EXTT9=
EXTT10=
EXTT11=
EXTT12=
EXTT13=
EXTT14=
EXTT15=
EXTT16=
EXTT17=
EXTT18=
EXTT19=
EXTT20=
EXTT21=
EXTT22=
EXTT23=
EXTT24=
PLAYORDER=
